<svg width="160" height="44" viewBox="0 0 160 44" fill="none" xmlns="http://www.w3.org/2000/svg">
    <path d="M25.7623 6.49216L7.2787 28.238L2.59873 12.2617L25.7623 6.49216Z" fill="#6FB7F1"/>
    <path d="M25.7623 6.49216L25.7286 20.0974L19.3836 22.8975L7.27869 28.238L25.7623 6.49216Z" fill="#459AE1"/>
    <path d="M30.5885 0.801636L25.7286 20.0974L25.7623 6.49214L30.5885 0.801636Z" fill="#3F87D2"/>
    <path d="M24.2548 25.9686L24.2211 26.1154L20.8686 39.3932L16.5936 33.0366L24.2548 25.9686Z" fill="#6FB7F1"/>
    <path d="M19.3836 22.8975L16.5936 33.0366L7.27869 28.238L19.3836 22.8975Z" fill="#3F87D2"/>
    <path d="M24.2548 25.9686L16.5936 33.0366L19.3836 22.8975L24.2548 25.9686Z" fill="#459AE1"/>
    <path d="M45.5291 24.644C45.5291 24.4494 45.4987 24.2748 45.4379 24.1201C45.3822 23.9604 45.2758 23.8158 45.1187 23.686C44.9616 23.5513 44.7412 23.4191 44.4575 23.2894C44.1737 23.1597 43.8063 23.0249 43.3554 22.8852C42.8538 22.7256 42.3775 22.546 41.9265 22.3464C41.4806 22.1468 41.0854 21.9148 40.7408 21.6504C40.4013 21.381 40.1328 21.0691 39.9352 20.7149C39.7426 20.3607 39.6464 19.949 39.6464 19.48C39.6464 19.026 39.7477 18.6144 39.9504 18.2452C40.153 17.871 40.4368 17.5517 40.8016 17.2872C41.1664 17.0178 41.5971 16.8108 42.0937 16.6661C42.5953 16.5214 43.1451 16.449 43.743 16.449C44.5588 16.449 45.2707 16.5937 45.8787 16.8831C46.4868 17.1725 46.958 17.5691 47.2924 18.0731C47.6319 18.577 47.8017 19.1532 47.8017 19.8019H45.5367C45.5367 19.4825 45.4683 19.2031 45.3315 18.9637C45.1998 18.7192 44.9971 18.5271 44.7235 18.3874C44.4549 18.2477 44.1154 18.1778 43.705 18.1778C43.3098 18.1778 42.9804 18.2377 42.7169 18.3574C42.4535 18.4722 42.2559 18.6294 42.1241 18.8289C41.9924 19.0235 41.9265 19.2431 41.9265 19.4875C41.9265 19.6721 41.9721 19.8393 42.0633 19.989C42.1596 20.1386 42.3015 20.2783 42.4889 20.4081C42.6764 20.5378 42.907 20.66 43.1806 20.7748C43.4542 20.8895 43.7709 21.0018 44.1306 21.1115C44.7336 21.2912 45.2631 21.4932 45.7191 21.7177C46.1802 21.9423 46.5653 22.1942 46.8744 22.4736C47.1835 22.753 47.4166 23.0699 47.5737 23.4241C47.7307 23.7783 47.8093 24.18 47.8093 24.629C47.8093 25.103 47.7155 25.5271 47.5281 25.9013C47.3406 26.2755 47.0695 26.5923 46.7148 26.8517C46.3601 27.1112 45.937 27.3083 45.4455 27.443C44.954 27.5777 44.4043 27.6451 43.7962 27.6451C43.249 27.6451 42.7093 27.5752 42.1773 27.4355C41.6453 27.2908 41.1614 27.0738 40.7256 26.7844C40.2949 26.495 39.9504 26.1258 39.692 25.6768C39.4335 25.2277 39.3043 24.6964 39.3043 24.0827H41.5921C41.5921 24.422 41.6453 24.7088 41.7517 24.9433C41.8581 25.1778 42.0076 25.3674 42.2001 25.5121C42.3977 25.6568 42.6308 25.7616 42.8994 25.8264C43.173 25.8913 43.4719 25.9237 43.7962 25.9237C44.1914 25.9237 44.5157 25.8689 44.7691 25.7591C45.0275 25.6493 45.2175 25.4972 45.3391 25.3026C45.4658 25.108 45.5291 24.8885 45.5291 24.644Z" fill="#3C4964"/>
    <path d="M51.4119 20.9544V30.6087H49.223V19.3977H51.2523L51.4119 20.9544ZM56.6182 23.3567V23.5139C56.6182 24.1026 56.5473 24.649 56.4054 25.1529C56.2686 25.6568 56.0659 26.0959 55.7974 26.4701C55.5288 26.8393 55.1944 27.1287 54.7941 27.3382C54.3989 27.5428 53.9429 27.6451 53.426 27.6451C52.9244 27.6451 52.4886 27.5453 52.1187 27.3457C51.7489 27.1461 51.4372 26.8667 51.1839 26.5075C50.9356 26.1433 50.7355 25.7217 50.5834 25.2427C50.4314 24.7637 50.3149 24.2498 50.2338 23.701V23.2894C50.3149 22.7006 50.4314 22.1618 50.5834 21.6728C50.7355 21.1789 50.9356 20.7523 51.1839 20.3931C51.4372 20.0289 51.7463 19.747 52.1111 19.5474C52.481 19.3478 52.9143 19.248 53.4108 19.248C53.9327 19.248 54.3913 19.3453 54.7865 19.5399C55.1868 19.7345 55.5212 20.0139 55.7898 20.3781C56.0634 20.7423 56.2686 21.1764 56.4054 21.6803C56.5473 22.1842 56.6182 22.7431 56.6182 23.3567ZM54.4217 23.5139V23.3567C54.4217 23.0125 54.3913 22.6957 54.3305 22.4063C54.2747 22.1119 54.1835 21.855 54.0569 21.6354C53.9353 21.4159 53.7731 21.2463 53.5704 21.1265C53.3728 21.0018 53.1321 20.9394 52.8484 20.9394C52.5494 20.9394 52.2936 20.9868 52.0807 21.0816C51.873 21.1764 51.7033 21.3136 51.5715 21.4932C51.4398 21.6728 51.341 21.8874 51.2751 22.1369C51.2092 22.3863 51.1687 22.6682 51.1535 22.9825V24.0228C51.1788 24.392 51.2498 24.7238 51.3663 25.0182C51.4828 25.3076 51.6627 25.5371 51.9059 25.7067C52.1491 25.8763 52.4684 25.9612 52.8636 25.9612C53.1524 25.9612 53.3956 25.8988 53.5932 25.7741C53.7909 25.6443 53.9505 25.4672 54.0721 25.2427C54.1987 25.0182 54.2874 24.7587 54.3381 24.4644C54.3938 24.17 54.4217 23.8532 54.4217 23.5139Z" fill="#3C4964"/>
    <path d="M60.2893 19.3977V27.4954H58.0927V19.3977H60.2893ZM57.9559 17.2872C57.9559 16.9729 58.0674 16.7135 58.2903 16.5089C58.5133 16.3043 58.8122 16.2021 59.1872 16.2021C59.5571 16.2021 59.8535 16.3043 60.0765 16.5089C60.3045 16.7135 60.4185 16.9729 60.4185 17.2872C60.4185 17.6016 60.3045 17.861 60.0765 18.0656C59.8535 18.2701 59.5571 18.3724 59.1872 18.3724C58.8122 18.3724 58.5133 18.2701 58.2903 18.0656C58.0674 17.861 57.9559 17.6016 57.9559 17.2872Z" fill="#3C4964"/>
    <path d="M64.2871 21.1639V27.4954H62.0982V19.3977H64.1579L64.2871 21.1639ZM66.7649 19.3453L66.7269 21.3436C66.6205 21.3286 66.4913 21.3161 66.3393 21.3061C66.1923 21.2912 66.058 21.2837 65.9364 21.2837C65.6273 21.2837 65.3588 21.3236 65.1308 21.4034C64.9078 21.4783 64.7203 21.5905 64.5683 21.7402C64.4214 21.8899 64.3099 22.072 64.2339 22.2865C64.163 22.5011 64.1224 22.7455 64.1123 23.02L63.6715 22.8852C63.6715 22.3614 63.7247 21.8799 63.8311 21.4408C63.9375 20.9968 64.092 20.6101 64.2947 20.2808C64.5025 19.9515 64.7558 19.6971 65.0548 19.5175C65.3537 19.3378 65.6957 19.248 66.0808 19.248C66.2024 19.248 66.3266 19.258 66.4533 19.278C66.5799 19.2929 66.6838 19.3154 66.7649 19.3453Z" fill="#3C4964"/>
    <path d="M71.9788 25.6693V22.062C71.9788 21.8026 71.9357 21.5805 71.8496 21.3959C71.7635 21.2063 71.6292 21.0592 71.4468 20.9544C71.2694 20.8496 71.0389 20.7972 70.7551 20.7972C70.5119 20.7972 70.3016 20.8396 70.1243 20.9244C69.9469 21.0043 69.8101 21.1215 69.7139 21.2762C69.6176 21.4259 69.5695 21.603 69.5695 21.8076H67.3805C67.3805 21.4633 67.4616 21.1365 67.6237 20.8272C67.7859 20.5178 68.0215 20.2459 68.3306 20.0114C68.6397 19.7719 69.007 19.5848 69.4326 19.4501C69.8633 19.3154 70.3447 19.248 70.8767 19.248C71.5152 19.248 72.0827 19.3528 72.5793 19.5624C73.0758 19.7719 73.466 20.0862 73.7497 20.5053C74.0385 20.9244 74.183 21.4483 74.183 22.077V25.5421C74.183 25.9861 74.2108 26.3503 74.2666 26.6347C74.3223 26.9141 74.4034 27.1586 74.5098 27.3681V27.4954H72.298C72.1916 27.2758 72.1106 27.0014 72.0548 26.6721C72.0041 26.3379 71.9788 26.0036 71.9788 25.6693ZM72.2676 22.5634L72.2828 23.7833H71.0592C70.7703 23.7833 70.5195 23.8158 70.3067 23.8806C70.0939 23.9455 69.9191 24.0378 69.7823 24.1575C69.6455 24.2723 69.5441 24.407 69.4783 24.5617C69.4174 24.7163 69.387 24.886 69.387 25.0706C69.387 25.2552 69.4301 25.4223 69.5163 25.572C69.6024 25.7167 69.7265 25.8314 69.8887 25.9163C70.0508 25.9961 70.2408 26.036 70.4587 26.036C70.7881 26.036 71.0744 25.9711 71.3176 25.8414C71.5608 25.7117 71.7483 25.552 71.88 25.3624C72.0168 25.1728 72.0878 24.9932 72.0928 24.8236L72.6705 25.7366C72.5894 25.9412 72.4779 26.1532 72.336 26.3728C72.1992 26.5923 72.0244 26.7994 71.8116 26.9939C71.5988 27.1835 71.3429 27.3407 71.044 27.4654C70.745 27.5852 70.3903 27.6451 69.9799 27.6451C69.458 27.6451 68.9842 27.5428 68.5586 27.3382C68.138 27.1287 67.8036 26.8418 67.5553 26.4776C67.3121 26.1083 67.1905 25.6892 67.1905 25.2202C67.1905 24.7962 67.2716 24.4195 67.4337 24.0902C67.5959 23.7609 67.834 23.484 68.1482 23.2594C68.4674 23.0299 68.8651 22.8578 69.3414 22.7431C69.8177 22.6233 70.37 22.5634 70.9983 22.5634H72.2676Z" fill="#3C4964"/>
    <path d="M78.1808 16V27.4954H75.9843V16H78.1808Z" fill="#3C4964"/>
    <path d="M85.3557 16.5987V27.4954H84.4208V16.5987H85.3557ZM90.5088 21.613V22.4063H85.044V21.613H90.5088ZM91.2764 16.5987V17.392H85.044V16.5987H91.2764Z" fill="#3C4964"/>
    <path d="M93.6706 20.7373V27.4954H92.7661V19.3977H93.6478L93.6706 20.7373ZM96.5816 19.3378L96.5588 20.1611C96.4574 20.1461 96.3586 20.1336 96.2624 20.1237C96.1661 20.1137 96.0622 20.1087 95.9507 20.1087C95.5555 20.1087 95.2084 20.181 94.9095 20.3257C94.6156 20.4654 94.3673 20.6625 94.1646 20.917C93.9619 21.1664 93.8074 21.4608 93.701 21.8001C93.5946 22.1344 93.5338 22.4936 93.5186 22.8778L93.1842 23.005C93.1842 22.4761 93.2399 21.9847 93.3514 21.5307C93.4628 21.0766 93.6326 20.68 93.8606 20.3407C94.0937 19.9964 94.385 19.7295 94.7347 19.5399C95.0894 19.3453 95.5048 19.248 95.9811 19.248C96.0977 19.248 96.2117 19.258 96.3232 19.278C96.4397 19.2929 96.5258 19.3129 96.5816 19.3378Z" fill="#3C4964"/>
    <path d="M102.708 26.0435V21.8674C102.708 21.4833 102.626 21.1515 102.464 20.8721C102.302 20.5927 102.064 20.3781 101.75 20.2284C101.436 20.0788 101.048 20.0039 100.587 20.0039C100.161 20.0039 99.7814 20.0788 99.447 20.2284C99.1176 20.3731 98.8567 20.5702 98.6641 20.8197C98.4766 21.0641 98.3829 21.3361 98.3829 21.6354L97.4708 21.6279C97.4708 21.3236 97.5468 21.0292 97.6989 20.7448C97.8509 20.4604 98.0662 20.206 98.3449 19.9815C98.6236 19.757 98.9555 19.5798 99.3406 19.4501C99.7307 19.3154 100.159 19.248 100.625 19.248C101.213 19.248 101.73 19.3453 102.176 19.5399C102.626 19.7345 102.979 20.0264 103.232 20.4155C103.485 20.8047 103.612 21.2937 103.612 21.8824V25.7965C103.612 26.0759 103.632 26.3653 103.673 26.6647C103.718 26.964 103.782 27.211 103.863 27.4056V27.4954H102.898C102.837 27.3158 102.789 27.0912 102.753 26.8218C102.723 26.5474 102.708 26.288 102.708 26.0435ZM102.92 22.7805L102.936 23.469H101.149C100.683 23.469 100.265 23.5114 99.8954 23.5962C99.5306 23.6761 99.2215 23.7958 98.9681 23.9555C98.7148 24.1101 98.5197 24.2972 98.3829 24.5168C98.2512 24.7363 98.1853 24.9857 98.1853 25.2651C98.1853 25.5545 98.2588 25.819 98.4057 26.0584C98.5577 26.2979 98.7705 26.49 99.0441 26.6347C99.3228 26.7744 99.6522 26.8443 100.032 26.8443C100.539 26.8443 100.985 26.752 101.37 26.5674C101.76 26.3828 102.082 26.1408 102.335 25.8414C102.588 25.5421 102.758 25.2153 102.844 24.861L103.24 25.3774C103.174 25.6269 103.052 25.8838 102.875 26.1483C102.703 26.4077 102.477 26.6522 102.198 26.8817C101.92 27.1062 101.59 27.2908 101.21 27.4355C100.835 27.5752 100.41 27.6451 99.9334 27.6451C99.3963 27.6451 98.9276 27.5453 98.5273 27.3457C98.1321 27.1461 97.823 26.8742 97.6 26.5299C97.3822 26.1807 97.2732 25.7865 97.2732 25.3475C97.2732 24.9483 97.3594 24.5916 97.5316 24.2773C97.7039 23.9579 97.9522 23.6885 98.2765 23.469C98.6058 23.2445 99.0011 23.0748 99.4622 22.9601C99.9283 22.8403 100.45 22.7805 101.028 22.7805H102.92Z" fill="#3C4964"/>
    <path d="M106.911 21.0741V27.4954H105.999V19.3977H106.873L106.911 21.0741ZM106.743 22.9451L106.303 22.7206C106.333 22.2416 106.424 21.7926 106.576 21.3735C106.733 20.9544 106.951 20.5852 107.23 20.2659C107.509 19.9465 107.843 19.6971 108.233 19.5175C108.623 19.3378 109.067 19.248 109.563 19.248C109.964 19.248 110.326 19.3029 110.65 19.4127C110.979 19.5175 111.258 19.6846 111.486 19.9141C111.719 20.1386 111.899 20.433 112.026 20.7972C112.152 21.1614 112.216 21.598 112.216 22.1069V27.4954H111.311V22.1369C111.311 21.598 111.225 21.1764 111.053 20.8721C110.886 20.5677 110.65 20.3507 110.346 20.221C110.047 20.0912 109.7 20.0264 109.305 20.0264C108.839 20.0264 108.443 20.1212 108.119 20.3108C107.8 20.4954 107.539 20.7373 107.336 21.0367C107.139 21.3311 106.992 21.6479 106.895 21.9872C106.799 22.3215 106.748 22.6408 106.743 22.9451ZM112.208 22.2416L111.6 22.2566C111.625 21.8624 111.717 21.4857 111.874 21.1265C112.036 20.7673 112.256 20.448 112.535 20.1686C112.814 19.8842 113.146 19.6597 113.531 19.495C113.921 19.3304 114.359 19.248 114.846 19.248C115.271 19.248 115.651 19.3054 115.986 19.4202C116.32 19.5299 116.601 19.7071 116.829 19.9515C117.062 20.191 117.24 20.4979 117.361 20.8721C117.483 21.2463 117.544 21.6953 117.544 22.2192V27.4954H116.632V22.2117C116.632 21.6379 116.546 21.1939 116.373 20.8795C116.206 20.5602 115.973 20.3382 115.674 20.2135C115.375 20.0887 115.025 20.0264 114.625 20.0264C114.23 20.0314 113.883 20.1037 113.584 20.2434C113.285 20.3781 113.034 20.5577 112.831 20.7823C112.634 21.0018 112.482 21.2388 112.375 21.4932C112.274 21.7477 112.218 21.9972 112.208 22.2416Z" fill="#3C4964"/>
    <path d="M123.031 27.6451C122.494 27.6451 122 27.5478 121.549 27.3532C121.103 27.1586 120.713 26.8842 120.379 26.5299C120.049 26.1757 119.793 25.7566 119.611 25.2726C119.434 24.7837 119.345 24.2498 119.345 23.6711V23.3493C119.345 22.7256 119.439 22.1618 119.626 21.6579C119.814 21.154 120.072 20.7224 120.401 20.3632C120.731 20.0039 121.106 19.7295 121.526 19.5399C121.952 19.3453 122.398 19.248 122.864 19.248C123.386 19.248 123.85 19.3403 124.255 19.5249C124.66 19.7046 125 19.9615 125.273 20.2958C125.552 20.6251 125.762 21.0168 125.904 21.4708C126.046 21.9198 126.117 22.4163 126.117 22.9601V23.5064H119.892V22.7431H125.213V22.6383C125.202 22.1842 125.109 21.7602 124.931 21.366C124.759 20.9669 124.501 20.6426 124.156 20.3931C123.812 20.1436 123.381 20.0189 122.864 20.0189C122.479 20.0189 122.124 20.0987 121.8 20.2584C121.481 20.418 121.205 20.6475 120.972 20.9469C120.744 21.2413 120.566 21.593 120.439 22.0021C120.318 22.4063 120.257 22.8553 120.257 23.3493V23.6711C120.257 24.1201 120.323 24.5392 120.455 24.9284C120.592 25.3125 120.784 25.6518 121.032 25.9462C121.286 26.2406 121.585 26.4701 121.929 26.6347C122.274 26.7994 122.654 26.8817 123.069 26.8817C123.556 26.8817 123.986 26.7944 124.361 26.6197C124.736 26.4401 125.073 26.1582 125.372 25.7741L125.942 26.2081C125.765 26.4676 125.542 26.7071 125.273 26.9266C125.01 27.1461 124.693 27.3207 124.323 27.4505C123.953 27.5802 123.523 27.6451 123.031 27.6451Z" fill="#3C4964"/>
    <path d="M130.191 25.6019L132.175 19.3977H132.813L132.433 21.0666L130.358 27.4954H129.72L130.191 25.6019ZM128.131 19.3977L129.872 25.6393L130.244 27.4954H129.583L127.196 19.3977H128.131ZM135.283 25.6169L136.978 19.3977H137.913L135.526 27.4954H134.873L135.283 25.6169ZM132.942 19.3977L134.896 25.5495L135.39 27.4954H134.751L132.631 21.0592L132.273 19.3977H132.942Z" fill="#3C4964"/>
    <path d="M139.159 23.5738V23.3268C139.159 22.7381 139.246 22.1942 139.418 21.6953C139.59 21.1964 139.836 20.7648 140.155 20.4006C140.479 20.0364 140.867 19.7545 141.318 19.5549C141.769 19.3503 142.271 19.248 142.823 19.248C143.38 19.248 143.884 19.3503 144.335 19.5549C144.786 19.7545 145.174 20.0364 145.498 20.4006C145.823 20.7648 146.071 21.1964 146.243 21.6953C146.415 22.1942 146.502 22.7381 146.502 23.3268V23.5738C146.502 24.1625 146.415 24.7063 146.243 25.2053C146.071 25.6992 145.823 26.1283 145.498 26.4925C145.179 26.8567 144.794 27.1411 144.343 27.3457C143.892 27.5453 143.39 27.6451 142.838 27.6451C142.281 27.6451 141.777 27.5453 141.326 27.3457C140.875 27.1411 140.487 26.8567 140.163 26.4925C139.838 26.1283 139.59 25.6992 139.418 25.2053C139.246 24.7063 139.159 24.1625 139.159 23.5738ZM140.064 23.3268V23.5738C140.064 24.0178 140.125 24.4394 140.246 24.8386C140.368 25.2327 140.545 25.5845 140.778 25.8938C141.011 26.1981 141.3 26.4376 141.645 26.6123C141.989 26.7869 142.387 26.8742 142.838 26.8742C143.284 26.8742 143.677 26.7869 144.016 26.6123C144.361 26.4376 144.65 26.1981 144.883 25.8938C145.116 25.5845 145.291 25.2327 145.407 24.8386C145.529 24.4394 145.59 24.0178 145.59 23.5738V23.3268C145.59 22.8877 145.529 22.4711 145.407 22.077C145.291 21.6828 145.113 21.3311 144.875 21.0217C144.642 20.7124 144.353 20.4679 144.009 20.2883C143.664 20.1087 143.269 20.0189 142.823 20.0189C142.377 20.0189 141.982 20.1087 141.637 20.2883C141.298 20.4679 141.009 20.7124 140.771 21.0217C140.538 21.3311 140.36 21.6828 140.239 22.077C140.122 22.4711 140.064 22.8877 140.064 23.3268Z" fill="#3C4964"/>
    <path d="M149.291 20.7373V27.4954H148.386V19.3977H149.268L149.291 20.7373ZM152.202 19.3378L152.179 20.1611C152.078 20.1461 151.979 20.1336 151.883 20.1237C151.786 20.1137 151.683 20.1087 151.571 20.1087C151.176 20.1087 150.829 20.181 150.53 20.3257C150.236 20.4654 149.988 20.6625 149.785 20.917C149.582 21.1664 149.428 21.4608 149.321 21.8001C149.215 22.1344 149.154 22.4936 149.139 22.8778L148.805 23.005C148.805 22.4761 148.86 21.9847 148.972 21.5307C149.083 21.0766 149.253 20.68 149.481 20.3407C149.714 19.9964 150.005 19.7295 150.355 19.5399C150.71 19.3453 151.125 19.248 151.601 19.248C151.718 19.248 151.832 19.258 151.944 19.278C152.06 19.2929 152.146 19.3129 152.202 19.3378Z" fill="#3C4964"/>
    <path d="M154.535 16V27.4954H153.631V16H154.535ZM159.696 19.3977L155.85 23.1547L154.216 24.7113L154.079 23.8357L155.394 22.4362L158.548 19.3977H159.696ZM158.906 27.4954L155.47 23.2894L155.972 22.5185L160 27.4954H158.906Z" fill="#3C4964"/>
</svg>
